<mxfile host="65bd71144e">
    <diagram id="zBbb_w2fufU70cdOGtND" name="1 oldal">
        <mxGraphModel dx="757" dy="937" grid="1" gridSize="10" guides="1" tooltips="1" connect="1" arrows="1" fold="1" page="1" pageScale="1" pageWidth="1200" pageHeight="1600" background="none" math="0" shadow="0">
            <root>
                <mxCell id="0"/>
                <mxCell id="1" parent="0"/>
                <mxCell id="5818" value="" style="rounded=0;fillColor=#5E5B61;fontColor=#FFFFFF;strokeColor=none;spacing=0;" vertex="1" parent="1">
                    <mxGeometry x="20" y="90" width="640" height="450" as="geometry"/>
                </mxCell>
                <mxCell id="5400" value="" style="rounded=0;fillColor=#C23555;fontColor=#FFFFFF;strokeColor=none;spacing=0;" vertex="1" parent="1">
                    <mxGeometry x="30" y="120" width="620" height="200" as="geometry"/>
                </mxCell>
                <mxCell id="5401" value="Block" style="text;strokeColor=none;fillColor=none;align=center;verticalAlign=middle;rounded=0;fontFamily=klavika;fontSize=17;fontColor=#FFFFFF;" vertex="1" parent="1">
                    <mxGeometry x="310" y="120" width="60" height="30" as="geometry"/>
                </mxCell>
                <mxCell id="5402" value="" style="rounded=0;whiteSpace=wrap;html=1;fillColor=#A20025;fontColor=#FFFFFF;strokeColor=none;" vertex="1" parent="1">
                    <mxGeometry x="360" y="160" width="280" height="140" as="geometry"/>
                </mxCell>
                <mxCell id="5403" value="&lt;font face=&quot;Klavika&quot; style=&quot;font-size: 17px;&quot;&gt;Thread-block tile&lt;/font&gt;" style="text;html=1;strokeColor=none;fillColor=none;align=center;verticalAlign=middle;whiteSpace=wrap;rounded=0;fontSize=17;fontColor=#FFFFFF;" vertex="1" parent="1">
                    <mxGeometry x="420" y="160" width="160" height="30" as="geometry"/>
                </mxCell>
                <mxCell id="5404" value="" style="rounded=0;whiteSpace=wrap;html=1;fillColor=#262626;fontColor=#FFFFFF;strokeColor=none;" vertex="1" parent="1">
                    <mxGeometry x="390" y="210" width="90" height="80" as="geometry"/>
                </mxCell>
                <mxCell id="5405" value="Warp" style="text;html=1;strokeColor=none;fillColor=none;align=center;verticalAlign=middle;whiteSpace=wrap;rounded=0;fontColor=#FFFFFF;" vertex="1" parent="1">
                    <mxGeometry x="405" y="210" width="60" height="30" as="geometry"/>
                </mxCell>
                <mxCell id="5406" value="" style="endArrow=classic;html=1;dashed=1;strokeColor=#FFFFFF;fontColor=#FFFFFF;" edge="1" parent="1">
                    <mxGeometry width="50" height="50" relative="1" as="geometry">
                        <mxPoint x="399.8600000000001" y="236.5" as="sourcePoint"/>
                        <mxPoint x="399.8600000000001" y="283.5" as="targetPoint"/>
                    </mxGeometry>
                </mxCell>
                <mxCell id="5407" value="" style="endArrow=classic;html=1;dashed=1;strokeColor=#FFFFFF;fontColor=#FFFFFF;" edge="1" parent="1">
                    <mxGeometry width="50" height="50" relative="1" as="geometry">
                        <mxPoint x="409.8600000000001" y="236.5" as="sourcePoint"/>
                        <mxPoint x="409.8600000000001" y="283.5" as="targetPoint"/>
                    </mxGeometry>
                </mxCell>
                <mxCell id="5408" value="" style="endArrow=classic;html=1;dashed=1;strokeColor=#FFFFFF;fontColor=#FFFFFF;" edge="1" parent="1">
                    <mxGeometry width="50" height="50" relative="1" as="geometry">
                        <mxPoint x="419.8600000000001" y="236.5" as="sourcePoint"/>
                        <mxPoint x="419.8600000000001" y="283.5" as="targetPoint"/>
                    </mxGeometry>
                </mxCell>
                <mxCell id="5409" value="" style="endArrow=classic;html=1;dashed=1;strokeColor=#FFFFFF;fontColor=#FFFFFF;" edge="1" parent="1">
                    <mxGeometry width="50" height="50" relative="1" as="geometry">
                        <mxPoint x="429.8600000000001" y="236.5" as="sourcePoint"/>
                        <mxPoint x="429.8600000000001" y="283.5" as="targetPoint"/>
                    </mxGeometry>
                </mxCell>
                <mxCell id="5410" value="" style="endArrow=classic;html=1;dashed=1;strokeColor=#FFFFFF;fontColor=#FFFFFF;" edge="1" parent="1">
                    <mxGeometry width="50" height="50" relative="1" as="geometry">
                        <mxPoint x="439.8600000000001" y="236.5" as="sourcePoint"/>
                        <mxPoint x="439.8600000000001" y="283.5" as="targetPoint"/>
                    </mxGeometry>
                </mxCell>
                <mxCell id="5411" value="" style="endArrow=classic;html=1;dashed=1;strokeColor=#FFFFFF;fontColor=#FFFFFF;" edge="1" parent="1">
                    <mxGeometry width="50" height="50" relative="1" as="geometry">
                        <mxPoint x="449.8600000000001" y="236.5" as="sourcePoint"/>
                        <mxPoint x="449.8600000000001" y="283.5" as="targetPoint"/>
                    </mxGeometry>
                </mxCell>
                <mxCell id="5412" value="" style="endArrow=classic;html=1;dashed=1;strokeColor=#FFFFFF;fontColor=#FFFFFF;" edge="1" parent="1">
                    <mxGeometry width="50" height="50" relative="1" as="geometry">
                        <mxPoint x="459.8600000000001" y="236.5" as="sourcePoint"/>
                        <mxPoint x="459.8600000000001" y="283.5" as="targetPoint"/>
                    </mxGeometry>
                </mxCell>
                <mxCell id="5413" value="" style="endArrow=classic;html=1;dashed=1;strokeColor=#FFFFFF;fontColor=#FFFFFF;" edge="1" parent="1">
                    <mxGeometry width="50" height="50" relative="1" as="geometry">
                        <mxPoint x="469.8600000000001" y="236.5" as="sourcePoint"/>
                        <mxPoint x="469.8600000000001" y="283.5" as="targetPoint"/>
                    </mxGeometry>
                </mxCell>
                <mxCell id="5414" value="" style="group;fontColor=#FFFFFF;" vertex="1" connectable="0" parent="1">
                    <mxGeometry x="380" y="200" width="90" height="80" as="geometry"/>
                </mxCell>
                <mxCell id="5415" value="" style="rounded=0;whiteSpace=wrap;html=1;fillColor=#523E43;fontColor=#FFFFFF;strokeColor=none;" vertex="1" parent="5414">
                    <mxGeometry width="90" height="80" as="geometry"/>
                </mxCell>
                <mxCell id="5416" value="Warp" style="text;html=1;strokeColor=none;fillColor=none;align=center;verticalAlign=middle;whiteSpace=wrap;rounded=0;fontColor=#FFFFFF;" vertex="1" parent="5414">
                    <mxGeometry x="15" width="60" height="30" as="geometry"/>
                </mxCell>
                <mxCell id="5417" value="" style="endArrow=classic;html=1;dashed=1;strokeColor=#FFFFFF;fontColor=#FFFFFF;" edge="1" parent="5414">
                    <mxGeometry width="50" height="50" relative="1" as="geometry">
                        <mxPoint x="9.86" y="26.5" as="sourcePoint"/>
                        <mxPoint x="9.86" y="73.5" as="targetPoint"/>
                    </mxGeometry>
                </mxCell>
                <mxCell id="5418" value="" style="endArrow=classic;html=1;dashed=1;strokeColor=#FFFFFF;fontColor=#FFFFFF;" edge="1" parent="5414">
                    <mxGeometry width="50" height="50" relative="1" as="geometry">
                        <mxPoint x="19.860000000000113" y="26.5" as="sourcePoint"/>
                        <mxPoint x="19.860000000000113" y="73.5" as="targetPoint"/>
                    </mxGeometry>
                </mxCell>
                <mxCell id="5419" value="" style="endArrow=classic;html=1;dashed=1;strokeColor=#FFFFFF;fontColor=#FFFFFF;" edge="1" parent="5414">
                    <mxGeometry width="50" height="50" relative="1" as="geometry">
                        <mxPoint x="29.86" y="26.500000000000057" as="sourcePoint"/>
                        <mxPoint x="29.86" y="73.5" as="targetPoint"/>
                    </mxGeometry>
                </mxCell>
                <mxCell id="5420" value="" style="endArrow=classic;html=1;dashed=1;strokeColor=#FFFFFF;fontColor=#FFFFFF;" edge="1" parent="5414">
                    <mxGeometry width="50" height="50" relative="1" as="geometry">
                        <mxPoint x="39.86000000000011" y="26.500000000000057" as="sourcePoint"/>
                        <mxPoint x="39.86000000000011" y="73.5" as="targetPoint"/>
                    </mxGeometry>
                </mxCell>
                <mxCell id="5421" value="" style="endArrow=classic;html=1;dashed=1;strokeColor=#FFFFFF;fontColor=#FFFFFF;" edge="1" parent="5414">
                    <mxGeometry width="50" height="50" relative="1" as="geometry">
                        <mxPoint x="49.86" y="26.500000000000057" as="sourcePoint"/>
                        <mxPoint x="49.86" y="73.5" as="targetPoint"/>
                    </mxGeometry>
                </mxCell>
                <mxCell id="5422" value="" style="endArrow=classic;html=1;dashed=1;strokeColor=#FFFFFF;fontColor=#FFFFFF;" edge="1" parent="5414">
                    <mxGeometry width="50" height="50" relative="1" as="geometry">
                        <mxPoint x="59.86000000000011" y="26.500000000000057" as="sourcePoint"/>
                        <mxPoint x="59.86000000000011" y="73.5" as="targetPoint"/>
                    </mxGeometry>
                </mxCell>
                <mxCell id="5423" value="" style="endArrow=classic;html=1;dashed=1;strokeColor=#FFFFFF;fontColor=#FFFFFF;" edge="1" parent="5414">
                    <mxGeometry width="50" height="50" relative="1" as="geometry">
                        <mxPoint x="69.86" y="26.500000000000057" as="sourcePoint"/>
                        <mxPoint x="69.86" y="73.5" as="targetPoint"/>
                    </mxGeometry>
                </mxCell>
                <mxCell id="5424" value="" style="endArrow=classic;html=1;dashed=1;strokeColor=#FFFFFF;fontColor=#FFFFFF;" edge="1" parent="5414">
                    <mxGeometry width="50" height="50" relative="1" as="geometry">
                        <mxPoint x="79.86000000000013" y="26.500000000000057" as="sourcePoint"/>
                        <mxPoint x="79.86000000000013" y="73.5" as="targetPoint"/>
                    </mxGeometry>
                </mxCell>
                <mxCell id="5425" value="" style="group;fontColor=#FFFFFF;" vertex="1" connectable="0" parent="1">
                    <mxGeometry x="370" y="190" width="90" height="80" as="geometry"/>
                </mxCell>
                <mxCell id="5426" value="" style="rounded=0;whiteSpace=wrap;html=1;fillColor=#585556;fontColor=#FFFFFF;strokeColor=none;" vertex="1" parent="5425">
                    <mxGeometry width="90" height="80" as="geometry"/>
                </mxCell>
                <mxCell id="5427" value="Warp" style="text;html=1;strokeColor=none;fillColor=none;align=center;verticalAlign=middle;whiteSpace=wrap;rounded=0;fontFamily=Klavika;fontSize=17;fontColor=#FFFFFF;" vertex="1" parent="5425">
                    <mxGeometry x="15" width="60" height="30" as="geometry"/>
                </mxCell>
                <mxCell id="5428" value="" style="endArrow=classic;html=1;dashed=1;strokeColor=#FFFFFF;fontColor=#FFFFFF;" edge="1" parent="5425">
                    <mxGeometry width="50" height="50" relative="1" as="geometry">
                        <mxPoint x="9.86" y="26.5" as="sourcePoint"/>
                        <mxPoint x="9.86" y="73.5" as="targetPoint"/>
                    </mxGeometry>
                </mxCell>
                <mxCell id="5429" value="" style="endArrow=classic;html=1;dashed=1;strokeColor=#FFFFFF;fontColor=#FFFFFF;" edge="1" parent="5425">
                    <mxGeometry width="50" height="50" relative="1" as="geometry">
                        <mxPoint x="19.860000000000113" y="26.5" as="sourcePoint"/>
                        <mxPoint x="19.860000000000113" y="73.5" as="targetPoint"/>
                    </mxGeometry>
                </mxCell>
                <mxCell id="5430" value="" style="endArrow=classic;html=1;dashed=1;strokeColor=#FFFFFF;fontColor=#FFFFFF;" edge="1" parent="5425">
                    <mxGeometry width="50" height="50" relative="1" as="geometry">
                        <mxPoint x="29.86" y="26.500000000000057" as="sourcePoint"/>
                        <mxPoint x="29.86" y="73.5" as="targetPoint"/>
                    </mxGeometry>
                </mxCell>
                <mxCell id="5431" value="" style="endArrow=classic;html=1;dashed=1;strokeColor=#FFFFFF;fontColor=#FFFFFF;" edge="1" parent="5425">
                    <mxGeometry width="50" height="50" relative="1" as="geometry">
                        <mxPoint x="39.86000000000011" y="26.500000000000057" as="sourcePoint"/>
                        <mxPoint x="39.86000000000011" y="73.5" as="targetPoint"/>
                    </mxGeometry>
                </mxCell>
                <mxCell id="5432" value="" style="endArrow=classic;html=1;dashed=1;strokeColor=#FFFFFF;fontColor=#FFFFFF;" edge="1" parent="5425">
                    <mxGeometry width="50" height="50" relative="1" as="geometry">
                        <mxPoint x="49.86" y="26.500000000000057" as="sourcePoint"/>
                        <mxPoint x="49.86" y="73.5" as="targetPoint"/>
                    </mxGeometry>
                </mxCell>
                <mxCell id="5433" value="" style="endArrow=classic;html=1;dashed=1;strokeColor=#FFFFFF;fontColor=#FFFFFF;" edge="1" parent="5425">
                    <mxGeometry width="50" height="50" relative="1" as="geometry">
                        <mxPoint x="59.86000000000011" y="26.500000000000057" as="sourcePoint"/>
                        <mxPoint x="59.86000000000011" y="73.5" as="targetPoint"/>
                    </mxGeometry>
                </mxCell>
                <mxCell id="5434" value="" style="endArrow=classic;html=1;dashed=1;strokeColor=#FFFFFF;fontColor=#FFFFFF;" edge="1" parent="5425">
                    <mxGeometry width="50" height="50" relative="1" as="geometry">
                        <mxPoint x="69.86" y="26.500000000000057" as="sourcePoint"/>
                        <mxPoint x="69.86" y="73.5" as="targetPoint"/>
                    </mxGeometry>
                </mxCell>
                <mxCell id="5435" value="" style="endArrow=classic;html=1;dashed=1;strokeColor=#FFFFFF;fontColor=#FFFFFF;" edge="1" parent="5425">
                    <mxGeometry width="50" height="50" relative="1" as="geometry">
                        <mxPoint x="79.86000000000013" y="26.500000000000057" as="sourcePoint"/>
                        <mxPoint x="79.86000000000013" y="73.5" as="targetPoint"/>
                    </mxGeometry>
                </mxCell>
                <mxCell id="5436" value="" style="group;fontColor=#FFFFFF;" vertex="1" connectable="0" parent="1">
                    <mxGeometry x="540" y="210" width="100" height="90" as="geometry"/>
                </mxCell>
                <mxCell id="5437" value="" style="rounded=0;whiteSpace=wrap;html=1;fillColor=#262626;fontColor=#FFFFFF;strokeColor=none;" vertex="1" parent="5436">
                    <mxGeometry width="90" height="80" as="geometry"/>
                </mxCell>
                <mxCell id="5438" value="Warp" style="text;html=1;strokeColor=none;fillColor=none;align=center;verticalAlign=middle;whiteSpace=wrap;rounded=0;fontColor=#FFFFFF;" vertex="1" parent="5436">
                    <mxGeometry x="15" width="60" height="30" as="geometry"/>
                </mxCell>
                <mxCell id="5439" value="" style="endArrow=classic;html=1;dashed=1;strokeColor=#FFFFFF;fontColor=#FFFFFF;" edge="1" parent="5436">
                    <mxGeometry width="50" height="50" relative="1" as="geometry">
                        <mxPoint x="9.86" y="26.5" as="sourcePoint"/>
                        <mxPoint x="9.86" y="73.5" as="targetPoint"/>
                    </mxGeometry>
                </mxCell>
                <mxCell id="5440" value="" style="endArrow=classic;html=1;dashed=1;strokeColor=#FFFFFF;fontColor=#FFFFFF;" edge="1" parent="5436">
                    <mxGeometry width="50" height="50" relative="1" as="geometry">
                        <mxPoint x="19.860000000000113" y="26.5" as="sourcePoint"/>
                        <mxPoint x="19.860000000000113" y="73.5" as="targetPoint"/>
                    </mxGeometry>
                </mxCell>
                <mxCell id="5441" value="" style="endArrow=classic;html=1;dashed=1;strokeColor=#FFFFFF;fontColor=#FFFFFF;" edge="1" parent="5436">
                    <mxGeometry width="50" height="50" relative="1" as="geometry">
                        <mxPoint x="29.86" y="26.500000000000057" as="sourcePoint"/>
                        <mxPoint x="29.86" y="73.5" as="targetPoint"/>
                    </mxGeometry>
                </mxCell>
                <mxCell id="5442" value="" style="endArrow=classic;html=1;dashed=1;strokeColor=#FFFFFF;fontColor=#FFFFFF;" edge="1" parent="5436">
                    <mxGeometry width="50" height="50" relative="1" as="geometry">
                        <mxPoint x="39.86000000000011" y="26.500000000000057" as="sourcePoint"/>
                        <mxPoint x="39.86000000000011" y="73.5" as="targetPoint"/>
                    </mxGeometry>
                </mxCell>
                <mxCell id="5443" value="" style="endArrow=classic;html=1;dashed=1;strokeColor=#FFFFFF;fontColor=#FFFFFF;" edge="1" parent="5436">
                    <mxGeometry width="50" height="50" relative="1" as="geometry">
                        <mxPoint x="49.86" y="26.500000000000057" as="sourcePoint"/>
                        <mxPoint x="49.86" y="73.5" as="targetPoint"/>
                    </mxGeometry>
                </mxCell>
                <mxCell id="5444" value="" style="endArrow=classic;html=1;dashed=1;strokeColor=#FFFFFF;fontColor=#FFFFFF;" edge="1" parent="5436">
                    <mxGeometry width="50" height="50" relative="1" as="geometry">
                        <mxPoint x="59.86000000000011" y="26.500000000000057" as="sourcePoint"/>
                        <mxPoint x="59.86000000000011" y="73.5" as="targetPoint"/>
                    </mxGeometry>
                </mxCell>
                <mxCell id="5445" value="" style="endArrow=classic;html=1;dashed=1;strokeColor=#FFFFFF;fontColor=#FFFFFF;" edge="1" parent="5436">
                    <mxGeometry width="50" height="50" relative="1" as="geometry">
                        <mxPoint x="69.86" y="26.500000000000057" as="sourcePoint"/>
                        <mxPoint x="69.86" y="73.5" as="targetPoint"/>
                    </mxGeometry>
                </mxCell>
                <mxCell id="5446" value="" style="endArrow=classic;html=1;dashed=1;strokeColor=#FFFFFF;fontColor=#FFFFFF;" edge="1" parent="5436">
                    <mxGeometry width="50" height="50" relative="1" as="geometry">
                        <mxPoint x="79.86000000000013" y="26.500000000000057" as="sourcePoint"/>
                        <mxPoint x="79.86000000000013" y="73.5" as="targetPoint"/>
                    </mxGeometry>
                </mxCell>
                <mxCell id="5447" value="" style="group;fontColor=#FFFFFF;" vertex="1" connectable="0" parent="1">
                    <mxGeometry x="530" y="200" width="90" height="80" as="geometry"/>
                </mxCell>
                <mxCell id="5448" value="" style="rounded=0;whiteSpace=wrap;html=1;fillColor=#523E43;fontColor=#FFFFFF;strokeColor=none;" vertex="1" parent="5447">
                    <mxGeometry width="90" height="80" as="geometry"/>
                </mxCell>
                <mxCell id="5449" value="Warp" style="text;html=1;strokeColor=none;fillColor=none;align=center;verticalAlign=middle;whiteSpace=wrap;rounded=0;fontColor=#FFFFFF;" vertex="1" parent="5447">
                    <mxGeometry x="15" width="60" height="30" as="geometry"/>
                </mxCell>
                <mxCell id="5450" value="" style="endArrow=classic;html=1;dashed=1;strokeColor=#FFFFFF;fontColor=#FFFFFF;" edge="1" parent="5447">
                    <mxGeometry width="50" height="50" relative="1" as="geometry">
                        <mxPoint x="9.86" y="26.5" as="sourcePoint"/>
                        <mxPoint x="9.86" y="73.5" as="targetPoint"/>
                    </mxGeometry>
                </mxCell>
                <mxCell id="5451" value="" style="endArrow=classic;html=1;dashed=1;strokeColor=#FFFFFF;fontColor=#FFFFFF;" edge="1" parent="5447">
                    <mxGeometry width="50" height="50" relative="1" as="geometry">
                        <mxPoint x="19.860000000000113" y="26.5" as="sourcePoint"/>
                        <mxPoint x="19.860000000000113" y="73.5" as="targetPoint"/>
                    </mxGeometry>
                </mxCell>
                <mxCell id="5452" value="" style="endArrow=classic;html=1;dashed=1;strokeColor=#FFFFFF;fontColor=#FFFFFF;" edge="1" parent="5447">
                    <mxGeometry width="50" height="50" relative="1" as="geometry">
                        <mxPoint x="29.86" y="26.500000000000057" as="sourcePoint"/>
                        <mxPoint x="29.86" y="73.5" as="targetPoint"/>
                    </mxGeometry>
                </mxCell>
                <mxCell id="5453" value="" style="endArrow=classic;html=1;dashed=1;strokeColor=#FFFFFF;fontColor=#FFFFFF;" edge="1" parent="5447">
                    <mxGeometry width="50" height="50" relative="1" as="geometry">
                        <mxPoint x="39.86000000000011" y="26.500000000000057" as="sourcePoint"/>
                        <mxPoint x="39.86000000000011" y="73.5" as="targetPoint"/>
                    </mxGeometry>
                </mxCell>
                <mxCell id="5454" value="" style="endArrow=classic;html=1;dashed=1;strokeColor=#FFFFFF;fontColor=#FFFFFF;" edge="1" parent="5447">
                    <mxGeometry width="50" height="50" relative="1" as="geometry">
                        <mxPoint x="49.86" y="26.500000000000057" as="sourcePoint"/>
                        <mxPoint x="49.86" y="73.5" as="targetPoint"/>
                    </mxGeometry>
                </mxCell>
                <mxCell id="5455" value="" style="endArrow=classic;html=1;dashed=1;strokeColor=#FFFFFF;fontColor=#FFFFFF;" edge="1" parent="5447">
                    <mxGeometry width="50" height="50" relative="1" as="geometry">
                        <mxPoint x="59.86000000000011" y="26.500000000000057" as="sourcePoint"/>
                        <mxPoint x="59.86000000000011" y="73.5" as="targetPoint"/>
                    </mxGeometry>
                </mxCell>
                <mxCell id="5456" value="" style="endArrow=classic;html=1;dashed=1;strokeColor=#FFFFFF;fontColor=#FFFFFF;" edge="1" parent="5447">
                    <mxGeometry width="50" height="50" relative="1" as="geometry">
                        <mxPoint x="69.86" y="26.500000000000057" as="sourcePoint"/>
                        <mxPoint x="69.86" y="73.5" as="targetPoint"/>
                    </mxGeometry>
                </mxCell>
                <mxCell id="5457" value="" style="endArrow=classic;html=1;dashed=1;strokeColor=#FFFFFF;fontColor=#FFFFFF;" edge="1" parent="5447">
                    <mxGeometry width="50" height="50" relative="1" as="geometry">
                        <mxPoint x="79.86000000000013" y="26.500000000000057" as="sourcePoint"/>
                        <mxPoint x="79.86000000000013" y="73.5" as="targetPoint"/>
                    </mxGeometry>
                </mxCell>
                <mxCell id="5458" value="" style="group;fontColor=#FFFFFF;" vertex="1" connectable="0" parent="1">
                    <mxGeometry x="520" y="190" width="90" height="80" as="geometry"/>
                </mxCell>
                <mxCell id="5459" value="" style="rounded=0;whiteSpace=wrap;html=1;fillColor=#585556;fontColor=#FFFFFF;strokeColor=none;" vertex="1" parent="5458">
                    <mxGeometry width="90" height="80" as="geometry"/>
                </mxCell>
                <mxCell id="5460" value="Warp" style="text;html=1;strokeColor=none;fillColor=none;align=center;verticalAlign=middle;whiteSpace=wrap;rounded=0;fontFamily=Klavika;fontSize=17;fontColor=#FFFFFF;" vertex="1" parent="5458">
                    <mxGeometry x="15" width="60" height="30" as="geometry"/>
                </mxCell>
                <mxCell id="5461" value="" style="endArrow=classic;html=1;dashed=1;strokeColor=#FFFFFF;fontColor=#FFFFFF;" edge="1" parent="5458">
                    <mxGeometry width="50" height="50" relative="1" as="geometry">
                        <mxPoint x="9.86" y="26.5" as="sourcePoint"/>
                        <mxPoint x="9.86" y="73.5" as="targetPoint"/>
                    </mxGeometry>
                </mxCell>
                <mxCell id="5462" value="" style="endArrow=classic;html=1;dashed=1;strokeColor=#FFFFFF;fontColor=#FFFFFF;" edge="1" parent="5458">
                    <mxGeometry width="50" height="50" relative="1" as="geometry">
                        <mxPoint x="19.860000000000113" y="26.5" as="sourcePoint"/>
                        <mxPoint x="19.860000000000113" y="73.5" as="targetPoint"/>
                    </mxGeometry>
                </mxCell>
                <mxCell id="5463" value="" style="endArrow=classic;html=1;dashed=1;strokeColor=#FFFFFF;fontColor=#FFFFFF;" edge="1" parent="5458">
                    <mxGeometry width="50" height="50" relative="1" as="geometry">
                        <mxPoint x="29.86" y="26.500000000000057" as="sourcePoint"/>
                        <mxPoint x="29.86" y="73.5" as="targetPoint"/>
                    </mxGeometry>
                </mxCell>
                <mxCell id="5464" value="" style="endArrow=classic;html=1;dashed=1;strokeColor=#FFFFFF;fontColor=#FFFFFF;" edge="1" parent="5458">
                    <mxGeometry width="50" height="50" relative="1" as="geometry">
                        <mxPoint x="39.86000000000011" y="26.500000000000057" as="sourcePoint"/>
                        <mxPoint x="39.86000000000011" y="73.5" as="targetPoint"/>
                    </mxGeometry>
                </mxCell>
                <mxCell id="5465" value="" style="endArrow=classic;html=1;dashed=1;strokeColor=#FFFFFF;fontColor=#FFFFFF;" edge="1" parent="5458">
                    <mxGeometry width="50" height="50" relative="1" as="geometry">
                        <mxPoint x="49.86" y="26.500000000000057" as="sourcePoint"/>
                        <mxPoint x="49.86" y="73.5" as="targetPoint"/>
                    </mxGeometry>
                </mxCell>
                <mxCell id="5466" value="" style="endArrow=classic;html=1;dashed=1;strokeColor=#FFFFFF;fontColor=#FFFFFF;" edge="1" parent="5458">
                    <mxGeometry width="50" height="50" relative="1" as="geometry">
                        <mxPoint x="59.86000000000011" y="26.500000000000057" as="sourcePoint"/>
                        <mxPoint x="59.86000000000011" y="73.5" as="targetPoint"/>
                    </mxGeometry>
                </mxCell>
                <mxCell id="5467" value="" style="endArrow=classic;html=1;dashed=1;strokeColor=#FFFFFF;fontColor=#FFFFFF;" edge="1" parent="5458">
                    <mxGeometry width="50" height="50" relative="1" as="geometry">
                        <mxPoint x="69.86" y="26.500000000000057" as="sourcePoint"/>
                        <mxPoint x="69.86" y="73.5" as="targetPoint"/>
                    </mxGeometry>
                </mxCell>
                <mxCell id="5468" value="" style="endArrow=classic;html=1;dashed=1;strokeColor=#FFFFFF;fontColor=#FFFFFF;" edge="1" parent="5458">
                    <mxGeometry width="50" height="50" relative="1" as="geometry">
                        <mxPoint x="79.86000000000013" y="26.500000000000057" as="sourcePoint"/>
                        <mxPoint x="79.86000000000013" y="73.5" as="targetPoint"/>
                    </mxGeometry>
                </mxCell>
                <mxCell id="5469" value="" style="rounded=0;whiteSpace=wrap;html=1;fillColor=#A20025;fontColor=#FFFFFF;strokeColor=none;" vertex="1" parent="1">
                    <mxGeometry x="40" y="160" width="280" height="140" as="geometry"/>
                </mxCell>
                <mxCell id="5470" value="&lt;font face=&quot;Klavika&quot; style=&quot;font-size: 17px;&quot;&gt;Thread-block tile&lt;/font&gt;" style="text;html=1;strokeColor=none;fillColor=none;align=center;verticalAlign=middle;whiteSpace=wrap;rounded=0;fontSize=17;fontColor=#FFFFFF;" vertex="1" parent="1">
                    <mxGeometry x="100" y="160" width="160" height="30" as="geometry"/>
                </mxCell>
                <mxCell id="5471" value="" style="rounded=0;whiteSpace=wrap;html=1;fillColor=#262626;fontColor=#FFFFFF;strokeColor=none;" vertex="1" parent="1">
                    <mxGeometry x="70" y="210" width="90" height="80" as="geometry"/>
                </mxCell>
                <mxCell id="5472" value="Warp" style="text;html=1;strokeColor=none;fillColor=none;align=center;verticalAlign=middle;whiteSpace=wrap;rounded=0;fontColor=#FFFFFF;" vertex="1" parent="1">
                    <mxGeometry x="85" y="210" width="60" height="30" as="geometry"/>
                </mxCell>
                <mxCell id="5473" value="" style="endArrow=classic;html=1;dashed=1;strokeColor=#FFFFFF;fontColor=#FFFFFF;" edge="1" parent="1">
                    <mxGeometry width="50" height="50" relative="1" as="geometry">
                        <mxPoint x="79.86000000000001" y="236.5" as="sourcePoint"/>
                        <mxPoint x="79.86000000000001" y="283.5" as="targetPoint"/>
                    </mxGeometry>
                </mxCell>
                <mxCell id="5474" value="" style="endArrow=classic;html=1;dashed=1;strokeColor=#FFFFFF;fontColor=#FFFFFF;" edge="1" parent="1">
                    <mxGeometry width="50" height="50" relative="1" as="geometry">
                        <mxPoint x="89.86000000000013" y="236.5" as="sourcePoint"/>
                        <mxPoint x="89.86000000000013" y="283.5" as="targetPoint"/>
                    </mxGeometry>
                </mxCell>
                <mxCell id="5475" value="" style="endArrow=classic;html=1;dashed=1;strokeColor=#FFFFFF;fontColor=#FFFFFF;" edge="1" parent="1">
                    <mxGeometry width="50" height="50" relative="1" as="geometry">
                        <mxPoint x="99.86000000000001" y="236.5" as="sourcePoint"/>
                        <mxPoint x="99.86000000000001" y="283.5" as="targetPoint"/>
                    </mxGeometry>
                </mxCell>
                <mxCell id="5476" value="" style="endArrow=classic;html=1;dashed=1;strokeColor=#FFFFFF;fontColor=#FFFFFF;" edge="1" parent="1">
                    <mxGeometry width="50" height="50" relative="1" as="geometry">
                        <mxPoint x="109.86000000000013" y="236.5" as="sourcePoint"/>
                        <mxPoint x="109.86000000000013" y="283.5" as="targetPoint"/>
                    </mxGeometry>
                </mxCell>
                <mxCell id="5477" value="" style="endArrow=classic;html=1;dashed=1;strokeColor=#FFFFFF;fontColor=#FFFFFF;" edge="1" parent="1">
                    <mxGeometry width="50" height="50" relative="1" as="geometry">
                        <mxPoint x="119.86000000000001" y="236.5" as="sourcePoint"/>
                        <mxPoint x="119.86000000000001" y="283.5" as="targetPoint"/>
                    </mxGeometry>
                </mxCell>
                <mxCell id="5478" value="" style="endArrow=classic;html=1;dashed=1;strokeColor=#FFFFFF;fontColor=#FFFFFF;" edge="1" parent="1">
                    <mxGeometry width="50" height="50" relative="1" as="geometry">
                        <mxPoint x="129.86000000000013" y="236.5" as="sourcePoint"/>
                        <mxPoint x="129.86000000000013" y="283.5" as="targetPoint"/>
                    </mxGeometry>
                </mxCell>
                <mxCell id="5479" value="" style="endArrow=classic;html=1;dashed=1;strokeColor=#FFFFFF;fontColor=#FFFFFF;" edge="1" parent="1">
                    <mxGeometry width="50" height="50" relative="1" as="geometry">
                        <mxPoint x="139.86" y="236.5" as="sourcePoint"/>
                        <mxPoint x="139.86" y="283.5" as="targetPoint"/>
                    </mxGeometry>
                </mxCell>
                <mxCell id="5480" value="" style="endArrow=classic;html=1;dashed=1;strokeColor=#FFFFFF;fontColor=#FFFFFF;" edge="1" parent="1">
                    <mxGeometry width="50" height="50" relative="1" as="geometry">
                        <mxPoint x="149.86000000000013" y="236.5" as="sourcePoint"/>
                        <mxPoint x="149.86000000000013" y="283.5" as="targetPoint"/>
                    </mxGeometry>
                </mxCell>
                <mxCell id="5481" value="" style="group;fontColor=#FFFFFF;" vertex="1" connectable="0" parent="1">
                    <mxGeometry x="60" y="200" width="90" height="80" as="geometry"/>
                </mxCell>
                <mxCell id="5482" value="" style="rounded=0;whiteSpace=wrap;html=1;fillColor=#523E43;fontColor=#FFFFFF;strokeColor=none;" vertex="1" parent="5481">
                    <mxGeometry width="90" height="80" as="geometry"/>
                </mxCell>
                <mxCell id="5483" value="Warp" style="text;html=1;strokeColor=none;fillColor=none;align=center;verticalAlign=middle;whiteSpace=wrap;rounded=0;fontColor=#FFFFFF;" vertex="1" parent="5481">
                    <mxGeometry x="15" width="60" height="30" as="geometry"/>
                </mxCell>
                <mxCell id="5484" value="" style="endArrow=classic;html=1;dashed=1;strokeColor=#FFFFFF;fontColor=#FFFFFF;" edge="1" parent="5481">
                    <mxGeometry width="50" height="50" relative="1" as="geometry">
                        <mxPoint x="9.86" y="26.5" as="sourcePoint"/>
                        <mxPoint x="9.86" y="73.5" as="targetPoint"/>
                    </mxGeometry>
                </mxCell>
                <mxCell id="5485" value="" style="endArrow=classic;html=1;dashed=1;strokeColor=#FFFFFF;fontColor=#FFFFFF;" edge="1" parent="5481">
                    <mxGeometry width="50" height="50" relative="1" as="geometry">
                        <mxPoint x="19.860000000000113" y="26.5" as="sourcePoint"/>
                        <mxPoint x="19.860000000000113" y="73.5" as="targetPoint"/>
                    </mxGeometry>
                </mxCell>
                <mxCell id="5486" value="" style="endArrow=classic;html=1;dashed=1;strokeColor=#FFFFFF;fontColor=#FFFFFF;" edge="1" parent="5481">
                    <mxGeometry width="50" height="50" relative="1" as="geometry">
                        <mxPoint x="29.86" y="26.500000000000057" as="sourcePoint"/>
                        <mxPoint x="29.86" y="73.5" as="targetPoint"/>
                    </mxGeometry>
                </mxCell>
                <mxCell id="5487" value="" style="endArrow=classic;html=1;dashed=1;strokeColor=#FFFFFF;fontColor=#FFFFFF;" edge="1" parent="5481">
                    <mxGeometry width="50" height="50" relative="1" as="geometry">
                        <mxPoint x="39.86000000000011" y="26.500000000000057" as="sourcePoint"/>
                        <mxPoint x="39.86000000000011" y="73.5" as="targetPoint"/>
                    </mxGeometry>
                </mxCell>
                <mxCell id="5488" value="" style="endArrow=classic;html=1;dashed=1;strokeColor=#FFFFFF;fontColor=#FFFFFF;" edge="1" parent="5481">
                    <mxGeometry width="50" height="50" relative="1" as="geometry">
                        <mxPoint x="49.86" y="26.500000000000057" as="sourcePoint"/>
                        <mxPoint x="49.86" y="73.5" as="targetPoint"/>
                    </mxGeometry>
                </mxCell>
                <mxCell id="5489" value="" style="endArrow=classic;html=1;dashed=1;strokeColor=#FFFFFF;fontColor=#FFFFFF;" edge="1" parent="5481">
                    <mxGeometry width="50" height="50" relative="1" as="geometry">
                        <mxPoint x="59.86000000000011" y="26.500000000000057" as="sourcePoint"/>
                        <mxPoint x="59.86000000000011" y="73.5" as="targetPoint"/>
                    </mxGeometry>
                </mxCell>
                <mxCell id="5490" value="" style="endArrow=classic;html=1;dashed=1;strokeColor=#FFFFFF;fontColor=#FFFFFF;" edge="1" parent="5481">
                    <mxGeometry width="50" height="50" relative="1" as="geometry">
                        <mxPoint x="69.86" y="26.500000000000057" as="sourcePoint"/>
                        <mxPoint x="69.86" y="73.5" as="targetPoint"/>
                    </mxGeometry>
                </mxCell>
                <mxCell id="5491" value="" style="endArrow=classic;html=1;dashed=1;strokeColor=#FFFFFF;fontColor=#FFFFFF;" edge="1" parent="5481">
                    <mxGeometry width="50" height="50" relative="1" as="geometry">
                        <mxPoint x="79.86000000000013" y="26.500000000000057" as="sourcePoint"/>
                        <mxPoint x="79.86000000000013" y="73.5" as="targetPoint"/>
                    </mxGeometry>
                </mxCell>
                <mxCell id="5492" value="" style="group;fontColor=#FFFFFF;" vertex="1" connectable="0" parent="1">
                    <mxGeometry x="50" y="190" width="90" height="80" as="geometry"/>
                </mxCell>
                <mxCell id="5493" value="" style="rounded=0;whiteSpace=wrap;html=1;fillColor=#585556;fontColor=#FFFFFF;strokeColor=none;" vertex="1" parent="5492">
                    <mxGeometry width="90" height="80" as="geometry"/>
                </mxCell>
                <mxCell id="5494" value="Warp" style="text;html=1;strokeColor=none;fillColor=none;align=center;verticalAlign=middle;whiteSpace=wrap;rounded=0;fontFamily=Klavika;fontSize=17;fontColor=#FFFFFF;" vertex="1" parent="5492">
                    <mxGeometry x="15" width="60" height="30" as="geometry"/>
                </mxCell>
                <mxCell id="5495" value="" style="endArrow=classic;html=1;dashed=1;strokeColor=#FFFFFF;fontColor=#FFFFFF;" edge="1" parent="5492">
                    <mxGeometry width="50" height="50" relative="1" as="geometry">
                        <mxPoint x="9.86" y="26.5" as="sourcePoint"/>
                        <mxPoint x="9.86" y="73.5" as="targetPoint"/>
                    </mxGeometry>
                </mxCell>
                <mxCell id="5496" value="" style="endArrow=classic;html=1;dashed=1;strokeColor=#FFFFFF;fontColor=#FFFFFF;" edge="1" parent="5492">
                    <mxGeometry width="50" height="50" relative="1" as="geometry">
                        <mxPoint x="19.860000000000113" y="26.5" as="sourcePoint"/>
                        <mxPoint x="19.860000000000113" y="73.5" as="targetPoint"/>
                    </mxGeometry>
                </mxCell>
                <mxCell id="5497" value="" style="endArrow=classic;html=1;dashed=1;strokeColor=#FFFFFF;fontColor=#FFFFFF;" edge="1" parent="5492">
                    <mxGeometry width="50" height="50" relative="1" as="geometry">
                        <mxPoint x="29.86" y="26.500000000000057" as="sourcePoint"/>
                        <mxPoint x="29.86" y="73.5" as="targetPoint"/>
                    </mxGeometry>
                </mxCell>
                <mxCell id="5498" value="" style="endArrow=classic;html=1;dashed=1;strokeColor=#FFFFFF;fontColor=#FFFFFF;" edge="1" parent="5492">
                    <mxGeometry width="50" height="50" relative="1" as="geometry">
                        <mxPoint x="39.86000000000011" y="26.500000000000057" as="sourcePoint"/>
                        <mxPoint x="39.86000000000011" y="73.5" as="targetPoint"/>
                    </mxGeometry>
                </mxCell>
                <mxCell id="5499" value="" style="endArrow=classic;html=1;dashed=1;strokeColor=#FFFFFF;fontColor=#FFFFFF;" edge="1" parent="5492">
                    <mxGeometry width="50" height="50" relative="1" as="geometry">
                        <mxPoint x="49.86" y="26.500000000000057" as="sourcePoint"/>
                        <mxPoint x="49.86" y="73.5" as="targetPoint"/>
                    </mxGeometry>
                </mxCell>
                <mxCell id="5500" value="" style="endArrow=classic;html=1;dashed=1;strokeColor=#FFFFFF;fontColor=#FFFFFF;" edge="1" parent="5492">
                    <mxGeometry width="50" height="50" relative="1" as="geometry">
                        <mxPoint x="59.86000000000011" y="26.500000000000057" as="sourcePoint"/>
                        <mxPoint x="59.86000000000011" y="73.5" as="targetPoint"/>
                    </mxGeometry>
                </mxCell>
                <mxCell id="5501" value="" style="endArrow=classic;html=1;dashed=1;strokeColor=#FFFFFF;fontColor=#FFFFFF;" edge="1" parent="5492">
                    <mxGeometry width="50" height="50" relative="1" as="geometry">
                        <mxPoint x="69.86" y="26.500000000000057" as="sourcePoint"/>
                        <mxPoint x="69.86" y="73.5" as="targetPoint"/>
                    </mxGeometry>
                </mxCell>
                <mxCell id="5502" value="" style="endArrow=classic;html=1;dashed=1;strokeColor=#FFFFFF;fontColor=#FFFFFF;" edge="1" parent="5492">
                    <mxGeometry width="50" height="50" relative="1" as="geometry">
                        <mxPoint x="79.86000000000013" y="26.500000000000057" as="sourcePoint"/>
                        <mxPoint x="79.86000000000013" y="73.5" as="targetPoint"/>
                    </mxGeometry>
                </mxCell>
                <mxCell id="5503" value="" style="group;fontColor=#FFFFFF;" vertex="1" connectable="0" parent="1">
                    <mxGeometry x="220" y="210" width="100" height="90" as="geometry"/>
                </mxCell>
                <mxCell id="5504" value="" style="rounded=0;whiteSpace=wrap;html=1;fillColor=#262626;fontColor=#FFFFFF;strokeColor=none;" vertex="1" parent="5503">
                    <mxGeometry width="90" height="80" as="geometry"/>
                </mxCell>
                <mxCell id="5505" value="Warp" style="text;html=1;strokeColor=none;fillColor=none;align=center;verticalAlign=middle;whiteSpace=wrap;rounded=0;fontColor=#FFFFFF;" vertex="1" parent="5503">
                    <mxGeometry x="15" width="60" height="30" as="geometry"/>
                </mxCell>
                <mxCell id="5506" value="" style="endArrow=classic;html=1;dashed=1;strokeColor=#FFFFFF;fontColor=#FFFFFF;" edge="1" parent="5503">
                    <mxGeometry width="50" height="50" relative="1" as="geometry">
                        <mxPoint x="9.86" y="26.5" as="sourcePoint"/>
                        <mxPoint x="9.86" y="73.5" as="targetPoint"/>
                    </mxGeometry>
                </mxCell>
                <mxCell id="5507" value="" style="endArrow=classic;html=1;dashed=1;strokeColor=#FFFFFF;fontColor=#FFFFFF;" edge="1" parent="5503">
                    <mxGeometry width="50" height="50" relative="1" as="geometry">
                        <mxPoint x="19.860000000000113" y="26.5" as="sourcePoint"/>
                        <mxPoint x="19.860000000000113" y="73.5" as="targetPoint"/>
                    </mxGeometry>
                </mxCell>
                <mxCell id="5508" value="" style="endArrow=classic;html=1;dashed=1;strokeColor=#FFFFFF;fontColor=#FFFFFF;" edge="1" parent="5503">
                    <mxGeometry width="50" height="50" relative="1" as="geometry">
                        <mxPoint x="29.86" y="26.500000000000057" as="sourcePoint"/>
                        <mxPoint x="29.86" y="73.5" as="targetPoint"/>
                    </mxGeometry>
                </mxCell>
                <mxCell id="5509" value="" style="endArrow=classic;html=1;dashed=1;strokeColor=#FFFFFF;fontColor=#FFFFFF;" edge="1" parent="5503">
                    <mxGeometry width="50" height="50" relative="1" as="geometry">
                        <mxPoint x="39.86000000000011" y="26.500000000000057" as="sourcePoint"/>
                        <mxPoint x="39.86000000000011" y="73.5" as="targetPoint"/>
                    </mxGeometry>
                </mxCell>
                <mxCell id="5510" value="" style="endArrow=classic;html=1;dashed=1;strokeColor=#FFFFFF;fontColor=#FFFFFF;" edge="1" parent="5503">
                    <mxGeometry width="50" height="50" relative="1" as="geometry">
                        <mxPoint x="49.86" y="26.500000000000057" as="sourcePoint"/>
                        <mxPoint x="49.86" y="73.5" as="targetPoint"/>
                    </mxGeometry>
                </mxCell>
                <mxCell id="5511" value="" style="endArrow=classic;html=1;dashed=1;strokeColor=#FFFFFF;fontColor=#FFFFFF;" edge="1" parent="5503">
                    <mxGeometry width="50" height="50" relative="1" as="geometry">
                        <mxPoint x="59.86000000000011" y="26.500000000000057" as="sourcePoint"/>
                        <mxPoint x="59.86000000000011" y="73.5" as="targetPoint"/>
                    </mxGeometry>
                </mxCell>
                <mxCell id="5512" value="" style="endArrow=classic;html=1;dashed=1;strokeColor=#FFFFFF;fontColor=#FFFFFF;" edge="1" parent="5503">
                    <mxGeometry width="50" height="50" relative="1" as="geometry">
                        <mxPoint x="69.86" y="26.500000000000057" as="sourcePoint"/>
                        <mxPoint x="69.86" y="73.5" as="targetPoint"/>
                    </mxGeometry>
                </mxCell>
                <mxCell id="5513" value="" style="endArrow=classic;html=1;dashed=1;strokeColor=#FFFFFF;fontColor=#FFFFFF;" edge="1" parent="5503">
                    <mxGeometry width="50" height="50" relative="1" as="geometry">
                        <mxPoint x="79.86000000000013" y="26.500000000000057" as="sourcePoint"/>
                        <mxPoint x="79.86000000000013" y="73.5" as="targetPoint"/>
                    </mxGeometry>
                </mxCell>
                <mxCell id="5514" value="" style="group;fontColor=#FFFFFF;" vertex="1" connectable="0" parent="1">
                    <mxGeometry x="210" y="200" width="90" height="80" as="geometry"/>
                </mxCell>
                <mxCell id="5515" value="" style="rounded=0;whiteSpace=wrap;html=1;fillColor=#523E43;fontColor=#FFFFFF;strokeColor=none;" vertex="1" parent="5514">
                    <mxGeometry width="90" height="80" as="geometry"/>
                </mxCell>
                <mxCell id="5516" value="Warp" style="text;html=1;strokeColor=none;fillColor=none;align=center;verticalAlign=middle;whiteSpace=wrap;rounded=0;fontColor=#FFFFFF;" vertex="1" parent="5514">
                    <mxGeometry x="15" width="60" height="30" as="geometry"/>
                </mxCell>
                <mxCell id="5517" value="" style="endArrow=classic;html=1;dashed=1;strokeColor=#FFFFFF;fontColor=#FFFFFF;" edge="1" parent="5514">
                    <mxGeometry width="50" height="50" relative="1" as="geometry">
                        <mxPoint x="9.86" y="26.5" as="sourcePoint"/>
                        <mxPoint x="9.86" y="73.5" as="targetPoint"/>
                    </mxGeometry>
                </mxCell>
                <mxCell id="5518" value="" style="endArrow=classic;html=1;dashed=1;strokeColor=#FFFFFF;fontColor=#FFFFFF;" edge="1" parent="5514">
                    <mxGeometry width="50" height="50" relative="1" as="geometry">
                        <mxPoint x="19.860000000000113" y="26.5" as="sourcePoint"/>
                        <mxPoint x="19.860000000000113" y="73.5" as="targetPoint"/>
                    </mxGeometry>
                </mxCell>
                <mxCell id="5519" value="" style="endArrow=classic;html=1;dashed=1;strokeColor=#FFFFFF;fontColor=#FFFFFF;" edge="1" parent="5514">
                    <mxGeometry width="50" height="50" relative="1" as="geometry">
                        <mxPoint x="29.86" y="26.500000000000057" as="sourcePoint"/>
                        <mxPoint x="29.86" y="73.5" as="targetPoint"/>
                    </mxGeometry>
                </mxCell>
                <mxCell id="5520" value="" style="endArrow=classic;html=1;dashed=1;strokeColor=#FFFFFF;fontColor=#FFFFFF;" edge="1" parent="5514">
                    <mxGeometry width="50" height="50" relative="1" as="geometry">
                        <mxPoint x="39.86000000000011" y="26.500000000000057" as="sourcePoint"/>
                        <mxPoint x="39.86000000000011" y="73.5" as="targetPoint"/>
                    </mxGeometry>
                </mxCell>
                <mxCell id="5521" value="" style="endArrow=classic;html=1;dashed=1;strokeColor=#FFFFFF;fontColor=#FFFFFF;" edge="1" parent="5514">
                    <mxGeometry width="50" height="50" relative="1" as="geometry">
                        <mxPoint x="49.86" y="26.500000000000057" as="sourcePoint"/>
                        <mxPoint x="49.86" y="73.5" as="targetPoint"/>
                    </mxGeometry>
                </mxCell>
                <mxCell id="5522" value="" style="endArrow=classic;html=1;dashed=1;strokeColor=#FFFFFF;fontColor=#FFFFFF;" edge="1" parent="5514">
                    <mxGeometry width="50" height="50" relative="1" as="geometry">
                        <mxPoint x="59.86000000000011" y="26.500000000000057" as="sourcePoint"/>
                        <mxPoint x="59.86000000000011" y="73.5" as="targetPoint"/>
                    </mxGeometry>
                </mxCell>
                <mxCell id="5523" value="" style="endArrow=classic;html=1;dashed=1;strokeColor=#FFFFFF;fontColor=#FFFFFF;" edge="1" parent="5514">
                    <mxGeometry width="50" height="50" relative="1" as="geometry">
                        <mxPoint x="69.86" y="26.500000000000057" as="sourcePoint"/>
                        <mxPoint x="69.86" y="73.5" as="targetPoint"/>
                    </mxGeometry>
                </mxCell>
                <mxCell id="5524" value="" style="endArrow=classic;html=1;dashed=1;strokeColor=#FFFFFF;fontColor=#FFFFFF;" edge="1" parent="5514">
                    <mxGeometry width="50" height="50" relative="1" as="geometry">
                        <mxPoint x="79.86000000000013" y="26.500000000000057" as="sourcePoint"/>
                        <mxPoint x="79.86000000000013" y="73.5" as="targetPoint"/>
                    </mxGeometry>
                </mxCell>
                <mxCell id="5525" value="" style="group;fontColor=#FFFFFF;" vertex="1" connectable="0" parent="1">
                    <mxGeometry x="200" y="190" width="90" height="80" as="geometry"/>
                </mxCell>
                <mxCell id="5526" value="" style="rounded=0;whiteSpace=wrap;html=1;fillColor=#585556;fontColor=#FFFFFF;strokeColor=none;" vertex="1" parent="5525">
                    <mxGeometry width="90" height="80" as="geometry"/>
                </mxCell>
                <mxCell id="5527" value="Warp" style="text;html=1;strokeColor=none;fillColor=none;align=center;verticalAlign=middle;whiteSpace=wrap;rounded=0;fontFamily=Klavika;fontSize=17;fontColor=#FFFFFF;" vertex="1" parent="5525">
                    <mxGeometry x="15" width="60" height="30" as="geometry"/>
                </mxCell>
                <mxCell id="5528" value="" style="endArrow=classic;html=1;dashed=1;strokeColor=#FFFFFF;fontColor=#FFFFFF;" edge="1" parent="5525">
                    <mxGeometry width="50" height="50" relative="1" as="geometry">
                        <mxPoint x="9.86" y="26.5" as="sourcePoint"/>
                        <mxPoint x="9.86" y="73.5" as="targetPoint"/>
                    </mxGeometry>
                </mxCell>
                <mxCell id="5529" value="" style="endArrow=classic;html=1;dashed=1;strokeColor=#FFFFFF;fontColor=#FFFFFF;" edge="1" parent="5525">
                    <mxGeometry width="50" height="50" relative="1" as="geometry">
                        <mxPoint x="19.860000000000113" y="26.5" as="sourcePoint"/>
                        <mxPoint x="19.860000000000113" y="73.5" as="targetPoint"/>
                    </mxGeometry>
                </mxCell>
                <mxCell id="5530" value="" style="endArrow=classic;html=1;dashed=1;strokeColor=#FFFFFF;fontColor=#FFFFFF;" edge="1" parent="5525">
                    <mxGeometry width="50" height="50" relative="1" as="geometry">
                        <mxPoint x="29.86" y="26.500000000000057" as="sourcePoint"/>
                        <mxPoint x="29.86" y="73.5" as="targetPoint"/>
                    </mxGeometry>
                </mxCell>
                <mxCell id="5531" value="" style="endArrow=classic;html=1;dashed=1;strokeColor=#FFFFFF;fontColor=#FFFFFF;" edge="1" parent="5525">
                    <mxGeometry width="50" height="50" relative="1" as="geometry">
                        <mxPoint x="39.86000000000011" y="26.500000000000057" as="sourcePoint"/>
                        <mxPoint x="39.86000000000011" y="73.5" as="targetPoint"/>
                    </mxGeometry>
                </mxCell>
                <mxCell id="5532" value="" style="endArrow=classic;html=1;dashed=1;strokeColor=#FFFFFF;fontColor=#FFFFFF;" edge="1" parent="5525">
                    <mxGeometry width="50" height="50" relative="1" as="geometry">
                        <mxPoint x="49.86" y="26.500000000000057" as="sourcePoint"/>
                        <mxPoint x="49.86" y="73.5" as="targetPoint"/>
                    </mxGeometry>
                </mxCell>
                <mxCell id="5533" value="" style="endArrow=classic;html=1;dashed=1;strokeColor=#FFFFFF;fontColor=#FFFFFF;" edge="1" parent="5525">
                    <mxGeometry width="50" height="50" relative="1" as="geometry">
                        <mxPoint x="59.86000000000011" y="26.500000000000057" as="sourcePoint"/>
                        <mxPoint x="59.86000000000011" y="73.5" as="targetPoint"/>
                    </mxGeometry>
                </mxCell>
                <mxCell id="5534" value="" style="endArrow=classic;html=1;dashed=1;strokeColor=#FFFFFF;fontColor=#FFFFFF;" edge="1" parent="5525">
                    <mxGeometry width="50" height="50" relative="1" as="geometry">
                        <mxPoint x="69.86" y="26.500000000000057" as="sourcePoint"/>
                        <mxPoint x="69.86" y="73.5" as="targetPoint"/>
                    </mxGeometry>
                </mxCell>
                <mxCell id="5535" value="" style="endArrow=classic;html=1;dashed=1;strokeColor=#FFFFFF;fontColor=#FFFFFF;" edge="1" parent="5525">
                    <mxGeometry width="50" height="50" relative="1" as="geometry">
                        <mxPoint x="79.86000000000013" y="26.500000000000057" as="sourcePoint"/>
                        <mxPoint x="79.86000000000013" y="73.5" as="targetPoint"/>
                    </mxGeometry>
                </mxCell>
                <mxCell id="5536" value="" style="rounded=0;fillColor=#C23555;fontColor=#FFFFFF;strokeColor=none;spacing=0;" vertex="1" parent="1">
                    <mxGeometry x="30" y="340" width="620" height="180" as="geometry"/>
                </mxCell>
                <mxCell id="5537" value="Block" style="text;strokeColor=none;fillColor=none;align=center;verticalAlign=middle;rounded=0;fontFamily=klavika;fontSize=17;fontColor=#FFFFFF;" vertex="1" parent="1">
                    <mxGeometry x="310" y="340" width="60" height="30" as="geometry"/>
                </mxCell>
                <mxCell id="5538" value="" style="rounded=0;whiteSpace=wrap;html=1;fillColor=#A20025;fontColor=#FFFFFF;strokeColor=none;" vertex="1" parent="1">
                    <mxGeometry x="370" y="380" width="260" height="120" as="geometry"/>
                </mxCell>
                <mxCell id="5539" value="&lt;font face=&quot;Klavika&quot;&gt;Coalesced group&lt;/font&gt;" style="text;html=1;strokeColor=none;fillColor=none;align=center;verticalAlign=middle;whiteSpace=wrap;rounded=0;fontSize=17;fontColor=#FFFFFF;" vertex="1" parent="1">
                    <mxGeometry x="420" y="380" width="160" height="30" as="geometry"/>
                </mxCell>
                <mxCell id="5541" value="Warp" style="text;html=1;strokeColor=none;fillColor=none;align=center;verticalAlign=middle;whiteSpace=wrap;rounded=0;fontColor=#FFFFFF;" vertex="1" parent="1">
                    <mxGeometry x="405" y="430" width="60" height="30" as="geometry"/>
                </mxCell>
                <mxCell id="5561" value="" style="group;fontColor=#FFFFFF;" vertex="1" connectable="0" parent="1">
                    <mxGeometry x="380" y="410" width="90" height="80" as="geometry"/>
                </mxCell>
                <mxCell id="5562" value="" style="rounded=0;whiteSpace=wrap;html=1;fillColor=#585556;fontColor=#FFFFFF;strokeColor=none;" vertex="1" parent="5561">
                    <mxGeometry width="90" height="80" as="geometry"/>
                </mxCell>
                <mxCell id="5563" value="Warp" style="text;html=1;strokeColor=none;fillColor=none;align=center;verticalAlign=middle;whiteSpace=wrap;rounded=0;fontFamily=Klavika;fontSize=17;fontColor=#FFFFFF;" vertex="1" parent="5561">
                    <mxGeometry x="15" width="60" height="30" as="geometry"/>
                </mxCell>
                <mxCell id="5564" value="" style="endArrow=classic;html=1;dashed=1;strokeColor=#FFFFFF;fontColor=#FFFFFF;" edge="1" parent="5561">
                    <mxGeometry width="50" height="50" relative="1" as="geometry">
                        <mxPoint x="9.86" y="26.5" as="sourcePoint"/>
                        <mxPoint x="9.86" y="73.5" as="targetPoint"/>
                    </mxGeometry>
                </mxCell>
                <mxCell id="5565" value="" style="endArrow=classic;html=1;dashed=1;strokeColor=#FFFFFF;fontColor=#FFFFFF;" edge="1" parent="5561">
                    <mxGeometry width="50" height="50" relative="1" as="geometry">
                        <mxPoint x="19.860000000000113" y="26.5" as="sourcePoint"/>
                        <mxPoint x="19.860000000000113" y="73.5" as="targetPoint"/>
                    </mxGeometry>
                </mxCell>
                <mxCell id="5567" value="" style="endArrow=classic;html=1;dashed=1;strokeColor=#FFFFFF;fontColor=#FFFFFF;" edge="1" parent="5561">
                    <mxGeometry width="50" height="50" relative="1" as="geometry">
                        <mxPoint x="39.86000000000011" y="26.500000000000057" as="sourcePoint"/>
                        <mxPoint x="39.86000000000011" y="73.5" as="targetPoint"/>
                    </mxGeometry>
                </mxCell>
                <mxCell id="5568" value="" style="endArrow=classic;html=1;dashed=1;strokeColor=#FFFFFF;fontColor=#FFFFFF;" edge="1" parent="5561">
                    <mxGeometry width="50" height="50" relative="1" as="geometry">
                        <mxPoint x="49.86" y="26.500000000000057" as="sourcePoint"/>
                        <mxPoint x="49.86" y="73.5" as="targetPoint"/>
                    </mxGeometry>
                </mxCell>
                <mxCell id="5569" value="" style="endArrow=classic;html=1;dashed=1;strokeColor=#FFFFFF;fontColor=#FFFFFF;" edge="1" parent="5561">
                    <mxGeometry width="50" height="50" relative="1" as="geometry">
                        <mxPoint x="59.86000000000011" y="26.500000000000057" as="sourcePoint"/>
                        <mxPoint x="59.86000000000011" y="73.5" as="targetPoint"/>
                    </mxGeometry>
                </mxCell>
                <mxCell id="5570" value="" style="endArrow=classic;html=1;dashed=1;strokeColor=#FFFFFF;fontColor=#FFFFFF;" edge="1" parent="5561">
                    <mxGeometry width="50" height="50" relative="1" as="geometry">
                        <mxPoint x="69.86" y="26.500000000000057" as="sourcePoint"/>
                        <mxPoint x="69.86" y="73.5" as="targetPoint"/>
                    </mxGeometry>
                </mxCell>
                <mxCell id="5594" value="" style="group;fontColor=#FFFFFF;" vertex="1" connectable="0" parent="1">
                    <mxGeometry x="530" y="410" width="90" height="80" as="geometry"/>
                </mxCell>
                <mxCell id="5595" value="" style="rounded=0;whiteSpace=wrap;html=1;fillColor=#585556;fontColor=#FFFFFF;strokeColor=none;" vertex="1" parent="5594">
                    <mxGeometry width="90" height="80" as="geometry"/>
                </mxCell>
                <mxCell id="5596" value="Warp" style="text;html=1;strokeColor=none;fillColor=none;align=center;verticalAlign=middle;whiteSpace=wrap;rounded=0;fontFamily=Klavika;fontSize=17;fontColor=#FFFFFF;" vertex="1" parent="5594">
                    <mxGeometry x="15" width="60" height="30" as="geometry"/>
                </mxCell>
                <mxCell id="5597" value="" style="endArrow=classic;html=1;dashed=1;strokeColor=#FFFFFF;fontColor=#FFFFFF;" edge="1" parent="5594">
                    <mxGeometry width="50" height="50" relative="1" as="geometry">
                        <mxPoint x="9.86" y="26.5" as="sourcePoint"/>
                        <mxPoint x="9.86" y="73.5" as="targetPoint"/>
                    </mxGeometry>
                </mxCell>
                <mxCell id="5598" value="" style="endArrow=classic;html=1;dashed=1;strokeColor=#FFFFFF;fontColor=#FFFFFF;" edge="1" parent="5594">
                    <mxGeometry width="50" height="50" relative="1" as="geometry">
                        <mxPoint x="19.860000000000113" y="26.5" as="sourcePoint"/>
                        <mxPoint x="19.860000000000113" y="73.5" as="targetPoint"/>
                    </mxGeometry>
                </mxCell>
                <mxCell id="5599" value="" style="endArrow=classic;html=1;dashed=1;strokeColor=#FFFFFF;fontColor=#FFFFFF;" edge="1" parent="5594">
                    <mxGeometry width="50" height="50" relative="1" as="geometry">
                        <mxPoint x="29.86" y="26.500000000000057" as="sourcePoint"/>
                        <mxPoint x="29.86" y="73.5" as="targetPoint"/>
                    </mxGeometry>
                </mxCell>
                <mxCell id="5600" value="" style="endArrow=classic;html=1;dashed=1;strokeColor=#FFFFFF;fontColor=#FFFFFF;" edge="1" parent="5594">
                    <mxGeometry width="50" height="50" relative="1" as="geometry">
                        <mxPoint x="39.86000000000011" y="26.500000000000057" as="sourcePoint"/>
                        <mxPoint x="39.86000000000011" y="73.5" as="targetPoint"/>
                    </mxGeometry>
                </mxCell>
                <mxCell id="5602" value="" style="endArrow=classic;html=1;dashed=1;strokeColor=#FFFFFF;fontColor=#FFFFFF;" edge="1" parent="5594">
                    <mxGeometry width="50" height="50" relative="1" as="geometry">
                        <mxPoint x="59.86000000000011" y="26.500000000000057" as="sourcePoint"/>
                        <mxPoint x="59.86000000000011" y="73.5" as="targetPoint"/>
                    </mxGeometry>
                </mxCell>
                <mxCell id="5603" value="" style="endArrow=classic;html=1;dashed=1;strokeColor=#FFFFFF;fontColor=#FFFFFF;" edge="1" parent="5594">
                    <mxGeometry width="50" height="50" relative="1" as="geometry">
                        <mxPoint x="69.86" y="26.500000000000057" as="sourcePoint"/>
                        <mxPoint x="69.86" y="73.5" as="targetPoint"/>
                    </mxGeometry>
                </mxCell>
                <mxCell id="5604" value="" style="endArrow=classic;html=1;dashed=1;strokeColor=#FFFFFF;fontColor=#FFFFFF;" edge="1" parent="5594">
                    <mxGeometry width="50" height="50" relative="1" as="geometry">
                        <mxPoint x="79.86000000000013" y="26.500000000000057" as="sourcePoint"/>
                        <mxPoint x="79.86000000000013" y="73.5" as="targetPoint"/>
                    </mxGeometry>
                </mxCell>
                <mxCell id="5605" value="" style="rounded=0;whiteSpace=wrap;html=1;fillColor=#A20025;fontColor=#FFFFFF;strokeColor=none;" vertex="1" parent="1">
                    <mxGeometry x="40" y="380" width="260" height="120" as="geometry"/>
                </mxCell>
                <mxCell id="5606" value="&lt;font face=&quot;Klavika&quot;&gt;Coalesced group&lt;/font&gt;" style="text;html=1;strokeColor=none;fillColor=none;align=center;verticalAlign=middle;whiteSpace=wrap;rounded=0;fontSize=17;fontColor=#FFFFFF;" vertex="1" parent="1">
                    <mxGeometry x="100" y="380" width="160" height="30" as="geometry"/>
                </mxCell>
                <mxCell id="5608" value="Warp" style="text;html=1;strokeColor=none;fillColor=none;align=center;verticalAlign=middle;whiteSpace=wrap;rounded=0;fontColor=#FFFFFF;" vertex="1" parent="1">
                    <mxGeometry x="85" y="430" width="60" height="30" as="geometry"/>
                </mxCell>
                <mxCell id="5628" value="" style="group;fontColor=#FFFFFF;" vertex="1" connectable="0" parent="1">
                    <mxGeometry x="50" y="410" width="90" height="80" as="geometry"/>
                </mxCell>
                <mxCell id="5629" value="" style="rounded=0;whiteSpace=wrap;html=1;fillColor=#585556;fontColor=#FFFFFF;strokeColor=none;" vertex="1" parent="5628">
                    <mxGeometry width="90" height="80" as="geometry"/>
                </mxCell>
                <mxCell id="5630" value="Warp" style="text;html=1;strokeColor=none;fillColor=none;align=center;verticalAlign=middle;whiteSpace=wrap;rounded=0;fontFamily=Klavika;fontSize=17;fontColor=#FFFFFF;" vertex="1" parent="5628">
                    <mxGeometry x="15" width="60" height="30" as="geometry"/>
                </mxCell>
                <mxCell id="5631" value="" style="endArrow=classic;html=1;dashed=1;strokeColor=#FFFFFF;fontColor=#FFFFFF;" edge="1" parent="5628">
                    <mxGeometry width="50" height="50" relative="1" as="geometry">
                        <mxPoint x="9.86" y="26.5" as="sourcePoint"/>
                        <mxPoint x="9.86" y="73.5" as="targetPoint"/>
                    </mxGeometry>
                </mxCell>
                <mxCell id="5633" value="" style="endArrow=classic;html=1;dashed=1;strokeColor=#FFFFFF;fontColor=#FFFFFF;" edge="1" parent="5628">
                    <mxGeometry width="50" height="50" relative="1" as="geometry">
                        <mxPoint x="29.86" y="26.500000000000057" as="sourcePoint"/>
                        <mxPoint x="29.86" y="73.5" as="targetPoint"/>
                    </mxGeometry>
                </mxCell>
                <mxCell id="5634" value="" style="endArrow=classic;html=1;dashed=1;strokeColor=#FFFFFF;fontColor=#FFFFFF;" edge="1" parent="5628">
                    <mxGeometry width="50" height="50" relative="1" as="geometry">
                        <mxPoint x="39.86000000000011" y="26.500000000000057" as="sourcePoint"/>
                        <mxPoint x="39.86000000000011" y="73.5" as="targetPoint"/>
                    </mxGeometry>
                </mxCell>
                <mxCell id="5635" value="" style="endArrow=classic;html=1;dashed=1;strokeColor=#FFFFFF;fontColor=#FFFFFF;" edge="1" parent="5628">
                    <mxGeometry width="50" height="50" relative="1" as="geometry">
                        <mxPoint x="49.86" y="26.500000000000057" as="sourcePoint"/>
                        <mxPoint x="49.86" y="73.5" as="targetPoint"/>
                    </mxGeometry>
                </mxCell>
                <mxCell id="5637" value="" style="endArrow=classic;html=1;dashed=1;strokeColor=#FFFFFF;fontColor=#FFFFFF;" edge="1" parent="5628">
                    <mxGeometry width="50" height="50" relative="1" as="geometry">
                        <mxPoint x="69.86" y="26.500000000000057" as="sourcePoint"/>
                        <mxPoint x="69.86" y="73.5" as="targetPoint"/>
                    </mxGeometry>
                </mxCell>
                <mxCell id="5661" value="" style="group;fontColor=#FFFFFF;" vertex="1" connectable="0" parent="1">
                    <mxGeometry x="200" y="410" width="90" height="80" as="geometry"/>
                </mxCell>
                <mxCell id="5662" value="" style="rounded=0;whiteSpace=wrap;html=1;fillColor=#585556;fontColor=#FFFFFF;strokeColor=none;" vertex="1" parent="5661">
                    <mxGeometry width="90" height="80" as="geometry"/>
                </mxCell>
                <mxCell id="5663" value="Warp" style="text;html=1;strokeColor=none;fillColor=none;align=center;verticalAlign=middle;whiteSpace=wrap;rounded=0;fontFamily=Klavika;fontSize=17;fontColor=#FFFFFF;" vertex="1" parent="5661">
                    <mxGeometry x="15" width="60" height="30" as="geometry"/>
                </mxCell>
                <mxCell id="5664" value="" style="endArrow=classic;html=1;dashed=1;strokeColor=#FFFFFF;fontColor=#FFFFFF;" edge="1" parent="5661">
                    <mxGeometry width="50" height="50" relative="1" as="geometry">
                        <mxPoint x="9.86" y="26.5" as="sourcePoint"/>
                        <mxPoint x="9.86" y="73.5" as="targetPoint"/>
                    </mxGeometry>
                </mxCell>
                <mxCell id="5666" value="" style="endArrow=classic;html=1;dashed=1;strokeColor=#FFFFFF;fontColor=#FFFFFF;" edge="1" parent="5661">
                    <mxGeometry width="50" height="50" relative="1" as="geometry">
                        <mxPoint x="29.86" y="26.500000000000057" as="sourcePoint"/>
                        <mxPoint x="29.86" y="73.5" as="targetPoint"/>
                    </mxGeometry>
                </mxCell>
                <mxCell id="5667" value="" style="endArrow=classic;html=1;dashed=1;strokeColor=#FFFFFF;fontColor=#FFFFFF;" edge="1" parent="5661">
                    <mxGeometry width="50" height="50" relative="1" as="geometry">
                        <mxPoint x="39.86000000000011" y="26.500000000000057" as="sourcePoint"/>
                        <mxPoint x="39.86000000000011" y="73.5" as="targetPoint"/>
                    </mxGeometry>
                </mxCell>
                <mxCell id="5669" value="" style="endArrow=classic;html=1;dashed=1;strokeColor=#FFFFFF;fontColor=#FFFFFF;" edge="1" parent="5661">
                    <mxGeometry width="50" height="50" relative="1" as="geometry">
                        <mxPoint x="59.86000000000011" y="26.500000000000057" as="sourcePoint"/>
                        <mxPoint x="59.86000000000011" y="73.5" as="targetPoint"/>
                    </mxGeometry>
                </mxCell>
                <mxCell id="5819" value="Grid" style="text;strokeColor=none;fillColor=none;align=center;verticalAlign=middle;rounded=0;fontFamily=klavika;fontSize=17;fontColor=#FFFFFF;" vertex="1" parent="1">
                    <mxGeometry x="310" y="90" width="60" height="30" as="geometry"/>
                </mxCell>
            </root>
        </mxGraphModel>
    </diagram>
</mxfile>